<?xml version="1.0" encoding="UTF-8"?>
<svg id="Camada_1" class="loader" xmlns="http://www.w3.org/2000/svg" viewBox="0 0 261 240">
  <defs>
    <style>
    .loader {
    width: 100%;
    height: 100%;
  }

  .loader path.fill {
    fill: rgba(34, 170, 255, 0.1);
    animation: fill 4s ease-in-out infinite;
  }

  .loader .dash path {
    stroke: #2AF;
    stroke-width: 1px;
    stroke-linecap: round;
    animation: dashArray var(--sped, 10s) ease-in-out infinite,
      dashOffset var(--sped, 10s) linear infinite;
  }

  .loader .dash path.aaa {
    stroke-width: 2px;
    stroke-linecap: butt;
    clip-path: path('M 20.4603 48.5493 L 16.6461 46.9584 C 17.3209 48.3794 18.4917 49.5682 20.0447 50.2206 C 23.4007 51.6328 27.2707 50.0262 28.6694 46.6367 C 29.3464 44.9966 29.3509 43.1867 28.6806 41.5422 C 28.0103 39.8977 26.7434 38.6151 25.119 37.9315 C 23.5035 37.2544 21.7741 37.279 20.2547 37.8576 L 24.1961 39.5022 C 26.6719 40.5434 27.8427 43.4124 26.8104 45.9105 C 25.7803 48.4085 22.936 49.5905 20.4603 48.5493 Z');
  }

  .loader .dash path.big {
    stroke-width: 2px;
    filter: drop-shadow(0 0 2px #2AF);
    }

  @keyframes dashArray {
    0% {
      stroke-dasharray: 0 1 359 0;
    }

    50% {
      stroke-dasharray: 0 359 1 0;
    }

    100% {
      stroke-dasharray: 359 1 0 0;
    }
  }

  @keyframes dashOffset {
    0% {
      stroke-dashoffset: -5;
    }

    100% {
      stroke-dashoffset: -365;
    }
  }

  @keyframes fill {
    30%,
    55% {
      fill: #2AF0;
    }
  }
    </style>
  </defs>
  <g class="dash">
    <path style="--sped: 5s;"
    class="fill" pathLength="360" d="M125.72,119.54c0,30.92-.16,61.85.12,92.76.07,7.39-2.87,12.55-8.57,16.51-3.57,2.48-7.58,4.36-11.07,6.95-12.63,9.42-23.24,1.94-34.03-3.87-8.89-4.78-14.43-11.52-13.16-22.41.45-3.92.13-7.92.08-11.88-.04-2.8.08-4.94,3.99-4.94,4.18,0,4.33,2.24,4.24,5.32-.13,4.56.13,9.13-.08,13.68-.22,4.64,1.78,8.02,5.27,10.71,5.07,3.9,10.86,6.55,16.59,9.24,2.02.94,4.28.71,6.42.09.76-.22,1.46-.62,2.18-.94,19.54-8.62,19.87-9.12,19.87-30.33,0-22.4.04-44.79-.07-67.19,0-1.71,1.44-4.63-1.27-5-2.41-.34-3.34,2.04-3.6,4.52-.6,5.84-4.74,8.71-9.87,9.65-4.59.83-8.53-1.4-11.26-5.22-3.25-4.55-3.19-9.19.02-13.8,3.15-4.51,9.59-5.87,15.55-3.26,5.21,2.28,10.46-.92,10.47-6.59.02-29.34-.1-58.67,0-88.01,0-3.47-1.51-5.65-4.17-7.28-3.37-2.07-6.88-3.94-10.29-5.95-6.6-3.92-13.17-5.3-19.85-.12-1.07.84-2.43,1.41-3.74,1.79-3.19.94-6.56,0-7.79-2.64-.93-2.02,2.53-2.97,4.23-4.1,2.13-1.43,4.51-2.48,6.73-3.8,6.27-3.75,12.47-4.2,19.07-.55,6.41,3.54,13.15,6.48,18.76,11.33,3.88,3.35,5.35,7.41,5.32,12.58-.16,30.92-.09,61.85-.09,92.76h0ZM101.51,135.57c2.8-.7,5.06-2.18,4.64-5.17-.38-2.75-1.93-5.5-5.37-5.09-3.1.36-4.88,2.61-4.62,5.79.25,3.11,2.8,3.91,5.34,4.47h0Z"/>
    <path class="fill" pathLength="360" d="M188.67,10.98c-4.49,3.66-8.6,3.93-12.91.79-6.26-4.57-11.99-2.75-18.8,0-12.69,5.12-16.43,13.32-15.85,26.65,1.08,24.54.38,49.16.23,73.74-.03,3.76.88,6.32,4.19,8.33,3.54,2.15,6.54,5.23,10.15,7.23,4.73,2.6,5.54,6.19,4,11.6-5.03-3.54-9.87-6.82-14.57-10.29-2.75-2.03-3.72-1.45-3.71,1.88.04,27.56.02,55.12.03,82.67,0,.6.02,1.2.13,1.78,1.45,6.99,21.41,18.5,28.24,16.14,6.02-2.08,11.65-5.06,16.9-8.63,5.16-3.5,7.88-12.97,5.84-18.82-.55-1.55-1.92-1.88-2.99-2.68-5.58-4.11-6.92-10.98-3.15-16.13,4.26-5.82,10.63-7.26,16.08-3.61,5.83,3.9,8.14,11.69,3.13,16.36-5.52,5.14-4.97,11.25-5.61,17.15-.66,6.1-3.09,10.26-8.17,13.56-5.67,3.69-11.62,6.8-17.61,9.87-5.12,2.61-10.29,2.29-15.44-.2-6.8-3.3-13.21-7.28-19.32-11.67-4.39-3.15-5.4-7.88-5.39-13.15.09-50.75.05-101.52.05-152.27,0-11.5.22-23.01-.09-34.49-.18-6.9,2.54-11.64,8.28-15.26,5.72-3.62,11.8-6.53,17.75-9.67,4.57-2.42,8.99-2.52,13.6-.02,5.02,2.73,10.38,4.89,14.98,9.16h.03ZM200.93,191.84c.02-3.6-1.51-5.11-4.7-5.13-3.25-.02-4.73,1.78-4.79,4.71-.07,3.02,1.7,4.84,4.72,4.86,3.07.02,4.51-1.95,4.77-4.44h0Z"/>
    <path class="fill" pathLength="360" d="M260.57,130.27c-.67,8.93-.89,16.4-1.9,23.76-.77,5.63-5.67,8.44-10.02,11.12-4.88,3.01-9.94,5.83-15.21,8.07-3.14,1.33-4.58,2.97-3.89,6.17,1.4,6.5.26,12.96.12,19.45-.14,7.19-2.28,12.67-8.71,16.3-2.74,1.55-5.21,3.61-7.96,5.16-1.72.97-4.16,3.56-5.54,1.25-1.37-2.28-1.4-5.82,1.36-8.08.9-.74,2.08-1.14,3.1-1.76,14.28-8.64,14.43-30.71,1.29-40.82-11.62-8.95-21.84-8.69-33.22-.14-7.54,5.67-12.3,17.85-8.79,26.33.61,1.49,2.42,2.49,3.69,3.7,5.32,5.08,5.37,12.07.12,17.23-4.58,4.49-11.46,4.53-16.04.1-5.35-5.17-5.56-12.33.08-17.13,2.87-2.45,4.31-4.87,3.73-8.54-2.58-16.27,4.67-26.72,19.71-31.94,8.39-2.91,11.83-7.93,10.14-16.7-.52-2.67.12-5.54-.06-8.3-.21-3.32,1.07-4.48,4.43-4.53,3.47-.05,4.02,1.63,3.77,4.4-.06.6-.03,1.19-.04,1.79-.12,16.71,4.8,23.66,20.61,28.99,2.71.91,5.51,1.08,8.15-.07,4.35-1.89,8.6-4,12.84-6.12,7.28-3.64,9.96-9.58,9.61-16.87-.3-6.03,3.1-8.86,8.63-12.77l-.02-.03ZM172.19,209.73c-.87-2.16-1.34-4.76-4.65-5.06-3.49-.32-5.26,1.74-5.6,4.68-.35,3.01,1.71,4.63,4.66,4.83,3,.21,4.74-1.38,5.58-4.45Z"/>
    <path class="fill" pathLength="360" d="M.02,131.77c5.61,2.52,8.63,6.3,7.84,12.83-.77,6.34,2.13,11.09,7.75,14.16,4.18,2.27,8.33,4.59,12.53,6.82.86.46,1.82.81,2.78,1.01,11.04,2.29,28.11-11.51,28.2-22.78.02-2.77.04-5.56-.06-8.32-.09-2.59-.04-4.63,3.61-4.56,3.41.07,4.63,1.51,4.59,4.66-.07,4.36.91,8.99-.27,13.01-1.69,5.79.81,7.77,5.46,9.38,2.42.83,4.58,2.38,6.95,3.38,11.47,4.84,18.11,12.83,17.67,25.84-.23,6.74-.11,13.48-.07,20.22.02,3.01-1.35,4.18-4.36,4.24-3.39.06-3.87-1.73-3.83-4.5.11-7.13.09-14.27.04-21.41-.04-6.12-2.76-10.06-7.82-14.16-12.96-10.53-24.53-9-36.81.66-4.27,3.37-6.81,6.98-6.7,12.4.07,3.57.28,7.15.02,10.7-.53,7.12,2.19,12.2,8.57,15.51,3.34,1.73,6.31,3.78,6.53,8.34.14,2.82,0,3.7-3.01,2.69-13.84-4.62-19.9-12.55-20.16-27.2-.11-5.52-.87-11.1.67-16.56.77-2.7-1.07-3.43-2.89-4.33-4.63-2.27-9.29-4.5-13.82-6.95C5.97,162.84-.16,157.82,0,148.26c.1-5.45.02-10.9.02-16.49H.02Z"/>
    <path class="fill" pathLength="360" d="M221.18,53.57c.02-13-10.89-25.62-23.66-27.38-7.18-.99-19.1,7.11-20.76,14.12-1.44,6.07-5.82,10.23-11.3,10.72-4.53.41-10.35-3.17-11.67-7.6-1.6-5.35-.74-10.19,3.98-13.84,2.88-2.23,6.33-3.06,9.55-1.88,3.51,1.3,6.07.37,8.8-1.51,12.51-8.61,23.95-10.08,37.98-.6,14.6,9.86,15.18,15.32,15.16,32.8,0,12.16-5.76,19.51-16.24,24.35-2.83,1.31-4.76,3.28-5.29,7.13-.87,6.42-7.81,10.22-14.01,8.65-5.69-1.45-10.14-8.22-8.94-13.6,1.42-6.32,8.15-11.82,13.54-9.41,7.77,3.49,12.92-.28,18.2-4.28,4.81-3.64,4.42-9.36,4.63-14.68.04-.99,0-1.98,0-2.98h.02ZM201.72,86.97c-.59-2.53-1.52-4.82-4.77-4.88-3.29-.06-5.36,1.62-5.37,4.87,0,2.95,1.98,4.58,4.94,4.71,3.17.15,4.47-1.89,5.19-4.7ZM169.86,39.05c-.6-2.92-2.17-4.65-5.27-4.65-3.26-.02-4.87,2.07-4.84,4.86.02,2.95,2.25,4.66,5.15,4.66s4.58-1.95,4.95-4.88h0Z"/>
    <path class="fill" pathLength="360" d="M162.82,88.08c0-2.57.12-5.15-.02-7.73-.43-8.42,3.14-14.44,10.57-18.36,3.33-1.76,6.56-3.69,9.79-5.62,2.09-1.26,3.29-2.81,3.57-5.61.65-6.52,7.49-11.27,13.63-10.07,6.11,1.19,11.09,8.58,9.66,14.3-1.85,7.34-8.42,11.09-15.58,8.88-9.03-2.78-22.93,6.88-23.4,16.32-.13,2.77-.27,5.56-.12,8.32.28,5.02-1.57,10.69,2.82,14.67,6.06,5.48,12.89,10.28,20.89,12.02,6.4,1.39,11.44-3.69,16.86-6.38,3.35-1.67,6.57-3.71,9.54-6.01,2.75-2.13,4.1-1.01,5.64,1.31,1.5,2.26,1.35,3.62-1.12,5.2-7.52,4.81-15.18,9.35-23.29,13.1-5.6,2.59-10.93,1.35-15.93-1.42-5.37-2.98-10.57-6.26-15.7-9.62-5.13-3.35-8.11-8-7.85-14.39.12-2.97.02-5.94.02-8.92h.03,0ZM203.34,52.12c-.7-2.28-1.91-4.56-5.07-4.39-3.02.16-4.58,2.11-4.61,5.13-.03,2.92,1.51,4.38,4.41,4.34,3.06-.04,4.69-1.7,5.25-5.08h0Z"/>
    <path class="fill" pathLength="360" d="M30.5,53.54c0-3.17-.14-6.35.03-9.51.28-4.97,2.2-9.17,6.36-12.17,6.59-4.75,13.39-9.17,20.76-12.67,4.02-1.91,8.04-1.94,12.05-.1,8.3,3.8,16.11,8.5,23.97,13.14,2.64,1.55,2.94,3.38,1.41,5.91-1.55,2.56-3.29,2.16-5.47.91-6.35-3.66-12.74-7.26-19.16-10.78-4.29-2.36-8.34-2.2-12.91.12-19.12,9.67-18.74,9.55-19.07,30.69-.13,8.49,4.16,12.71,10.52,16.18,4.69,2.56,9.49,4.96,14.31,7.29,2.62,1.27,3.59,2.77,2.1,5.61-1.35,2.58-3.04,2.69-5.37,1.53-7.78-3.92-15.68-7.61-22.85-12.68-5.36-3.78-6.25-9.32-6.57-15.15-.15-2.76-.03-5.55-.03-8.32h-.09Z"/>
    <path class="fill" pathLength="360" d="M88.9,86.21c2.14-9.46-3.22-16.28-12.96-20.88-4.64-2.19-8.87-5.22-13.36-7.73-2.1-1.17-3.03-2.53-1.73-4.76,1.16-1.98,2.53-3.81,5.19-2.25,8.51,5.01,17.52,9.21,25.29,15.47,6.62,5.34,4.67,13.14,5.51,19.89.88,7.13,1.79,15.29-3.82,20.95-7.69,7.75-16.81,13.96-27.64,16.67-4.63,1.16-8.97-1.08-12.97-3.35-6.02-3.43-11.88-7.14-17.9-10.57-2.56-1.46-3.39-2.81-1.61-5.61,1.83-2.89,3.28-2.94,6.12-1.13,6.17,3.93,12.68,7.32,19.03,10.97,3.15,1.8,6.25,1.9,9.66.56,6.34-2.51,12.08-6.06,17.24-10.36,5.04-4.2,3.91-10.41,3.94-17.88h0Z"/>
    <path class="fill" pathLength="360" d="M248.63,104.23c3.17-11.16-5.97-15.8-14.4-21-1.67-1.04-5.68-.86-2.83-5.16,2.32-3.5,4.36-3.35,7.22-1.32.33.23.65.45.99.66,16.7,10.61,19.44,18.25,16.91,38.06-1.19,9.33-5.55,14.73-13.24,18.64-3.55,1.79-6.27,3.89-7.45,8.34-1.63,6.14-8.57,8.98-14.41,6.95-5.96-2.08-9.49-8.47-7.81-14.09,1.95-6.52,8.36-11.06,14.02-8.43,5.92,2.75,9.94,1.85,14.89-1.87,5.4-4.08,6.08-9.33,6.11-15.18v-5.59h0ZM229.61,137.93c-.02-3.12-1.49-4.82-4.71-4.65-3.03.16-4.84,1.91-4.78,4.88.06,2.99,2.03,4.61,5.02,4.66,3.25.07,4.55-1.83,4.47-4.9h0Z"/>
    <path class="fill" pathLength="360" d="M3.06,106.23c0-3.37.06-6.73,0-10.09-.09-4.05,1.56-7.44,4.45-9.99,4.45-3.94,9.55-6.99,14.66-10.05,3.31-1.99,4.48,0,6.08,2.17,2.22,3.02-.32,4-2.18,4.73-12.03,4.67-15.75,13.1-15.3,25.98.37,10.75,4.75,16.48,13.72,20.29,3.27,1.39,6.54,2.83,9.85,4.15,2.59,1.03,3.71,2.24,2.47,5.35-1.28,3.17-2.86,3.12-5.48,2.01-5.63-2.41-11.32-4.65-16.67-7.69-7.97-4.53-12.29-10.92-11.56-20.32.16-2.16.03-4.35.03-6.53h-.05Z"/>
  </g>
</svg>


